HIERARCHY
ROOT Hips
{
  OFFSET 90.7885 88.945 -76.2838
  CHANNELS 6 Xposition Yposition Zposition Zrotation Xrotation Yrotation
  JOINT LeftUpLeg
  {
    OFFSET 8.64259 1.95398 -2.38835
    CHANNELS 3 Zrotation Xrotation Yrotation
    JOINT LeftLeg
    {
      OFFSET 43.7702 0 0
      CHANNELS 3 Zrotation Xrotation Yrotation
      JOINT LeftFoot
      {
        OFFSET 40.6238 0 0
        CHANNELS 3 Zrotation Xrotation Yrotation
        JOINT LeftToeBase
        {
          OFFSET 12.7242 0 0
          CHANNELS 3 Zrotation Xrotation Yrotation
          End Site
          {
            OFFSET 0 0 0
          }
        }
      }
    }
  }
  JOINT RightUpLeg
  {
    OFFSET -8.2249 1.95398 -2.59336
    CHANNELS 3 Zrotation Xrotation Yrotation
    JOINT RightLeg
    {
      OFFSET 43.5653 0 0
      CHANNELS 3 Zrotation Xrotation Yrotation
      JOINT RightFoot
      {
        OFFSET 40.6238 0 0
        CHANNELS 3 Zrotation Xrotation Yrotation
        JOINT RightToeBase
        {
          OFFSET 12.7242 0 0
          CHANNELS 3 Zrotation Xrotation Yrotation
          End Site
          {
            OFFSET 0 0 0
          }
        }
      }
    }
  }
  JOINT Spine
  {
    OFFSET 0.165834 0.87714 6.61349
    CHANNELS 3 Zrotation Xrotation Yrotation
    JOINT Spine1
    {
      OFFSET 7.38963 1.71661e-005 0
      CHANNELS 3 Zrotation Xrotation Yrotation
      JOINT Spine2
      {
        OFFSET 11.9445 1.14441e-005 0
        CHANNELS 3 Zrotation Xrotation Yrotation
        JOINT Spine3
        {
          OFFSET 14.7254 4.19617e-005 0
          CHANNELS 3 Zrotation Xrotation Yrotation
          JOINT Spine4
          {
            OFFSET 10.9679 0 0
            CHANNELS 3 Zrotation Xrotation Yrotation
            JOINT RightShoulder
            {
              OFFSET 2.46616 -1.6653 3.69651
              CHANNELS 3 Zrotation Xrotation Yrotation
              JOINT RightArm
              {
                OFFSET 13.0012 0 0
                CHANNELS 3 Zrotation Xrotation Yrotation
                JOINT RightForeArm
                {
                  OFFSET 28.7848 1.52588e-005 0
                  CHANNELS 3 Zrotation Xrotation Yrotation
                  JOINT RightHand
                  {
                    OFFSET 26.5688 1.52588e-005 0
                    CHANNELS 3 Zrotation Xrotation Yrotation
                    End Site
                    {
                      OFFSET 0 0 0
                    }
                  }
                }
              }
            }
            JOINT LeftShoulder
            {
              OFFSET 2.38034 -1.29275 -3.7523
              CHANNELS 3 Zrotation Xrotation Yrotation
              JOINT LeftArm
              {
                OFFSET 16.3182 6.10352e-005 0
                CHANNELS 3 Zrotation Xrotation Yrotation
                JOINT LeftForeArm
                {
                  OFFSET 27.0901 0 0
                  CHANNELS 3 Zrotation Xrotation Yrotation
                  JOINT LeftHand
                  {
                    OFFSET 24.5451 1.52588e-005 0
                    CHANNELS 3 Zrotation Xrotation Yrotation
                    End Site
                    {
                      OFFSET 0 0 0
                    }
                  }
                }
              }
            }
            JOINT Neck
            {
              OFFSET 5.0226 -0.0266342 0
              CHANNELS 3 Zrotation Xrotation Yrotation
              JOINT Head
              {
                OFFSET 6.69363 2.86102e-005 0
                CHANNELS 3 Zrotation Xrotation Yrotation
                End Site
                {
                  OFFSET 0 0 0
                }
              }
            }
          }
        }
      }
    }
  }
}
MOTION
Frames:	10
Frame Time:	0.0416667
-0.924498 107.563 -2.27049 87.4077 49.128 91.5216 -171.044 0.94638 98.163 -70.2663 25.7199 5.49406 49.4931 -3.81819 -1.01619 19.0418 3.54496 -2.75847 170.638 3.26068 90.8173 -94.8105 -14.8706 -1.29711 60.5705 -0.601818 0.0093445 21.3339 -1.86833 5.25153 0.195969 7.20835 -90.5221 12.4566 0.140944 -1.05839 0.785221 0.0942311 -1.06357 -21.747 0.452504 -0.967114 -1.73431 0.452497 -0.967121 104.139 3.90803 -73.5302 -10.8314 37.9649 -42.6099 -1.48775 -5.50859 -9.48388 -25.5388 1.12163 -11.764 -79.6711 -2.80434 90.5542 20.4393 -36.5889 -54.2494 14.1053 -9.25941 -0.613079 4.4562 -0.234626 -6.8469 -31.7675 -0.254753 -6.39791 2.52126 -1.01418 3.43993 
6.0096 109.119 -8.2946 85.8347 48.6602 92.2043 -168.104 21.2924 94.2389 -94.4036 12.8902 4.27583 60.8417 0.571589 1.47069 15.7882 4.34304 -2.99212 175.544 29.2103 81.8313 -116.266 -18.1825 -1.03854 69.2991 -4.64509 -3.42152 20.6281 -1.07303 3.77678 -0.0385196 8.4187 -90.6458 10.033 -0.370479 -1.25556 -1.63852 -0.425365 -1.23805 -24.1688 0.0239503 -1.30885 -4.15616 0.023973 -1.30885 102.728 -4.61973 -80.5317 -16.4413 26.6924 -13.7252 -0.784639 -5.39504 -10.0449 -26.1737 0.755952 -9.84708 -79.4483 -5.09222 91.6381 31.0824 -18.8406 -25.9424 9.57604 -8.64216 -2.92685 3.08161 -0.225414 -7.27829 -33.0172 0.242109 -5.34217 5.27953 -0.273395 4.61803 
12.6838 107.694 -12.9272 82.8137 49.6584 93.3989 -161.884 45.8978 82.5069 -102.376 11.0044 3.73175 70.5221 4.78163 2.31511 9.8369 5.30012 -2.76594 177.351 52.956 83.5543 -108.521 -13.2183 -1.0685 77.8363 -9.57871 -4.42537 20.0535 -1.11007 3.91372 -0.197984 9.81707 -90.5888 7.23502 -0.649093 -1.13116 -4.43622 -0.698266 -1.10149 -26.9678 -0.279169 -1.27392 -6.95513 -0.279169 -1.27393 98.9232 -9.05198 -92.194 -2.87707 11.5638 4.97903 1.98845 -5.4387 -5.62279 -25.1944 1.45323 -13.4668 -81.13 -8.76079 87.2771 28.78 9.12639 -10.2077 2.13897 -10.3354 -2.11779 1.97331 -0.194091 -7.09876 -26.7962 -0.0481734 -6.53849 6.59718 -0.283712 5.21712 
21.1322 102.933 -19.1652 79.1085 50.5548 96.7177 -156.5 61.6385 73.0956 -87.8775 12.8451 -0.285222 77.3967 7.40153 -0.429779 9.94651 1.42626 1.27806 174.558 61.6778 86.7351 -77.5574 -9.7381 0.0366548 78.7626 -9.45234 -2.52038 18.123 -0.00553674 2.08572 -0.0301252 11.0327 -90.8367 4.80246 -0.403281 -1.63517 -6.86943 -0.474825 -1.61586 -29.3963 0.106725 -1.68077 -9.38362 0.106735 -1.68077 96.3284 -15.9452 -97.4996 11.6824 1.73563 8.30276 5.31428 -9.96195 -5.61804 -25.8201 1.17799 -13.1027 -84.2699 -18.0391 81.3686 17.3849 16.0906 -3.69233 0.913262 -10.2174 -0.113799 5.23723 -0.312155 -7.72322 -13.489 -1.37378 -7.10874 4.17823 -0.963305 6.11223 
32.4833 94.9805 -28.3703 75.269 47.6535 100.368 -161.573 68.2483 78.3998 -61.6067 13.6335 -5.93822 76.0807 6.31767 -3.40276 17.1155 -2.07273 4.28141 174.32 58.6093 89.8113 -45.7448 -15.1785 1.20804 71.2228 -5.50406 -0.953144 21.3457 0.320525 0.900407 0.196135 11.6685 -90.9226 3.5328 0.0234668 -1.80494 -8.1394 -0.0560031 -1.80423 -30.6652 0.564742 -1.71451 -10.6525 0.564746 -1.7145 92.8178 -20.4512 -104.664 23.7576 -1.47313 8.19366 6.51256 -7.10144 -9.06389 -26.8671 1.50941 -13.4931 -85.55 -27.1553 81.3148 0.221266 12.058 -1.68772 2.9448 -8.23965 -0.234592 4.5546 -0.282257 -7.44566 -3.41274 -1.08907 -2.56397 0.891102 -0.693684 2.94365 
44.6411 80.4371 -38.7396 82.0608 45.168 95.5168 -171.974 67.3393 89.2731 -52.466 16.0344 -4.49895 74.7434 5.77832 -4.91316 18.8523 -0.512707 2.44118 -178.491 62.9213 89.2245 -66.0488 -11.8097 -1.2153 70.1287 -4.99726 -1.82859 21.9842 -2.55173 6.59679 0.303033 11.6263 -90.552 3.62341 0.384727 -1.08067 -8.04792 0.336803 -1.09656 -30.581 0.691719 -0.915106 -10.5683 0.691728 -0.915106 88.2501 -30.7051 -109.889 26.4824 -2.13443 4.05568 6.32849 -8.94041 -6.90544 -22.5571 0.585733 -10.5588 -87.4662 -40.2309 80.5342 -3.88827 19.7792 -5.76992 -2.36209 -16.8321 0.00706987 6.577 0.0687627 -2.42465 -6.04291 0.236142 -0.928268 0.770781 0.387253 2.4349 
53.0806 69.3988 -46.8939 90.8455 40.8812 92.4453 -175.744 74.9444 92.9008 -77.106 19.6648 2.00113 64.0918 2.10047 2.61576 3.69648 -8.85992 11.8993 175.367 68.9718 97.93 -96.8215 -17.5018 -0.519707 72.5722 -6.98302 -5.17265 29.6429 -3.09313 7.26037 0.522429 12.0274 -90.4348 2.8212 0.872622 -0.839235 -8.84975 0.834852 -0.876836 -31.3862 1.08451 -0.538174 -11.3736 1.0845 -0.538175 84.6201 -31.4155 -116.506 19.6095 -4.13258 -14.6872 8.11807 -6.95414 -2.96358 -26.5996 0.332312 -8.27892 -91.1444 -47.6219 76.4518 -2.43118 13.8291 -24.0458 0.0566503 -5.88916 7.80824e-005 0.960758 -0.152135 -6.4872 0.773658 1.70912 0.0644224 1.27223 1.75391 2.80858 
60.1559 63.7468 -53.1913 96.5114 44.2031 84.2509 -155.908 75.563 71.1741 -96.847 19.5171 3.74422 73.1699 6.31252 4.04118 11.4419 -1.71936 4.52193 -178.745 66.1216 87.7985 -113.947 -17.3647 -1.00438 81.2133 -11.5349 -6.55429 37.0093 -3.58728 8.15716 0.373727 12.5739 -90.0221 1.72543 0.737833 -0.0267988 -9.94535 0.735944 -0.0592501 -32.4819 0.71177 0.196193 -12.4693 0.711773 0.1962 87.4528 -24.9952 -114.236 10.7965 4.43618 -40.4602 3.09079 -12.0863 -9.83473 -26.9646 0.33575 -9.30523 -93.4711 -42.8926 71.4655 3.80705 2.51362 -59.064 2.66185 -3.27725 -0.516423 5.52532 -0.425214 -9.31965 5.9572 0.723487 -0.299421 1.25629 0.765707 0.422372 
65.5866 63.519 -57.2593 94.1578 46.5016 84.3242 -143.686 74.507 60.991 -103.586 21.3105 3.93098 76.6949 7.97164 3.98743 10.354 -0.982558 3.73681 -174.472 62.9756 84.8606 -117.584 -14.5842 -1.03927 82.043 -11.4468 -5.65071 46.9477 -3.56928 7.42996 0.474213 12.2426 -89.9168 2.38716 0.979305 0.181075 -9.28345 0.98635 0.137782 -31.8209 0.879611 0.467051 -11.8083 0.879629 0.46706 92.016 -14.4233 -109.449 4.69356 19.4938 -59.3196 1.95269 -8.44198 -12.4295 -28.7256 0.882728 -10.5385 -91.4628 -31.042 70.9358 -1.27694 -10.5247 -83.2394 8.35858 0.826587 -4.78951 7.82204 -0.58786 -9.9115 7.86042 -1.23287 1.65727 4.51197 -1.56532 -0.467303 
71.295 67.8889 -61.1106 90.889 50.4608 84.5266 -148.447 68.8884 65.6456 -101.342 25.0375 3.40375 77.6962 8.84978 5.72676 12.184 4.22877 -2.12949 -176.313 55.108 86.2008 -112.717 -9.74708 -1.22133 82.7345 -11.7475 -5.63019 52.3965 -3.39777 5.93548 0.442467 11.6696 -89.7315 3.5323 0.991419 0.525655 -8.13835 1.0136 0.481506 -30.6748 0.787597 0.799319 -10.6621 0.787614 0.799326 96.8847 -5.59158 -99.811 5.37292 31.0085 -69.0449 0.513028 -2.95671 -12.9249 -30.3966 1.86349 -12.7849 -87.2165 -18.1335 74.6823 -3.82841 -18.6146 -98.5825 10.5745 -4.25 -11.861 8.16844 -0.631239 -10.1621 4.71409 -2.99136 -1.82221 7.38467 -2.63173 -0.312798 
